<?xml version="1.0" encoding="utf-8"?>
<!-- Generator: Adobe Illustrator 22.1.0, SVG Export Plug-In . SVG Version: 6.00 Build 0)  -->
<svg version="1.1" id="linkedin" xmlns="http://www.w3.org/2000/svg" xmlns:xlink="http://www.w3.org/1999/xlink" x="0px" y="0px"
	 viewBox="0 0 100 100" style="enable-background:new 0 0 100 100;" xml:space="preserve">
<style type="text/css">
	.st0{fill:#0399FF;}
	.st1{display:none;fill:#F7F7F7;}
	.st2{fill:#FFFFFF;}
</style>
<circle class="st0" cx="50" cy="50" r="48"/>
<path class="st1" d="M66.3,25.5H33.7c-4.5,0-8.2,3.7-8.2,8.2v32.5c0,4.5,3.7,8.2,8.2,8.2h32.5c4.5,0,8.2-3.7,8.2-8.2V33.7
	C74.5,29.2,70.8,25.5,66.3,25.5z M43.9,65.3h-6.1V43.9h6.1V65.3z M40.8,40.8c-1.7,0-3.1-1.4-3.1-3.1s1.4-3.1,3.1-3.1
	s3.1,1.4,3.1,3.1S42.5,40.8,40.8,40.8z M65.3,65.3h-6.1V53.1c0-1.7-1.4-3.1-3.1-3.1s-3.1,1.4-3.1,3.1v12.2h-6.1V43.9h6.1v3.8
	c1.3-1.7,3.2-3.8,5.4-3.8c3.8,0,6.9,3.4,6.9,7.7L65.3,65.3L65.3,65.3z"/>
<g>
	<path class="st2" d="M50.2,36.7c-7,0-12.8,5.7-12.8,12.8s5.7,12.8,12.8,12.8S63,56.5,63,49.5S57.2,36.7,50.2,36.7z M50.2,57.7
		c-4.5,0-8.2-3.7-8.2-8.2s3.7-8.2,8.2-8.2s8.2,3.7,8.2,8.2S54.7,57.7,50.2,57.7z"/>
	<circle class="st2" cx="63.5" cy="36.4" r="2.9"/>
	<path class="st2" d="M71,28.9c-2.6-2.7-6.3-4.1-10.5-4.1H39.9c-8.7,0-14.5,5.8-14.5,14.5v20.5c0,4.3,1.4,8,4.2,10.7
		c2.7,2.6,6.3,3.9,10.4,3.9h20.4c4.3,0,7.9-1.4,10.5-3.9c2.7-2.6,4.1-6.3,4.1-10.6V39.3C75,35.1,73.6,31.5,71,28.9z M70.6,59.9
		c0,3.1-1.1,5.6-2.9,7.3c-1.8,1.7-4.3,2.6-7.3,2.6H40c-3,0-5.5-0.9-7.3-2.6c-1.8-1.8-2.7-4.3-2.7-7.4V39.3c0-3,0.9-5.5,2.7-7.3
		c1.7-1.7,4.3-2.6,7.3-2.6h20.6c3,0,5.5,0.9,7.3,2.7c1.7,1.8,2.7,4.3,2.7,7.2V59.9L70.6,59.9z"/>
</g>
</svg>
